<svg width="400" height="300" viewBox="0 0 400 300" fill="none" xmlns="http://www.w3.org/2000/svg">
  <rect width="400" height="300" fill="#F3F4F6"/>
  <rect x="50" y="50" width="300" height="200" rx="20" fill="white" stroke="#E5E7EB" stroke-width="2"/>
  
  <!-- Face outline -->
  <ellipse cx="200" cy="130" rx="60" ry="80" fill="#FEF3C7" stroke="#F59E0B" stroke-width="2"/>
  
  <!-- Eyes -->
  <circle cx="180" cy="110" r="8" fill="#374151"/>
  <circle cx="220" cy="110" r="8" fill="#374151"/>
  
  <!-- Nose -->
  <path d="M200 120 L195 135 L205 135 Z" fill="#F59E0B"/>
  
  <!-- Mouth -->
  <path d="M185 150 Q200 160 215 150" stroke="#374151" stroke-width="2" fill="none"/>
  
  <!-- Freckles -->
  <circle cx="170" cy="125" r="2" fill="#D97706"/>
  <circle cx="175" cy="140" r="1.5" fill="#D97706"/>
  <circle cx="225" cy="120" r="2" fill="#D97706"/>
  <circle cx="230" cy="135" r="1.5" fill="#D97706"/>
  <circle cx="190" cy="145" r="1" fill="#D97706"/>
  <circle cx="210" cy="142" r="1" fill="#D97706"/>
  
  <!-- Camera icon -->
  <rect x="160" y="220" width="80" height="50" rx="8" fill="#E5E7EB" stroke="#9CA3AF"/>
  <circle cx="200" cy="240" r="12" fill="#6B7280"/>
  <circle cx="200" cy="240" r="8" fill="#374151"/>
  <rect x="185" y="225" width="8" height="4" rx="2" fill="#9CA3AF"/>
  
  <!-- Text -->
  <text x="200" y="290" text-anchor="middle" fill="#6B7280" font-family="Arial, sans-serif" font-size="14">
    Анализ кожи лица
  </text>
</svg>